<?xml version="1.0" encoding="utf-8"?>
<svg preserveAspectRatio="xMidYMid meet" version="1.1" xmlns="http://www.w3.org/2000/svg" style="display: block;" viewBox="0 0 2048 2048" width="512" height="512">
  <rect x="285.917" y="545.378" width="1219.22" height="1165.07" style="fill: rgb(167, 238, 154);"/>
  <path fill="rgb(50,50,54)" d="M 340.95 312.372 L 1422.08 312.311 C 1478.69 312.203 1518.87 315.293 1520.62 383.326 C 1521.98 436.194 1520.91 489.31 1520.91 542.206 L 1520.9 1015.39 C 1520.9 1038.27 1530.36 1118.89 1503.05 1117.11 C 1496.03 1116.66 1491.62 1112.08 1487.38 1106.94 L 1486.53 1105.89 C 1485.37 1086.22 1486.48 1065.88 1486.51 1046.14 L 1486.53 564.978 L 305.366 564.978 L 305.333 1610.34 C 305.336 1675.57 301.018 1684.24 365.623 1684.02 L 606.351 1683.93 L 1486.53 1683.93 L 1486.49 1259.89 C 1486.31 1194.05 1475.21 1196.24 1549.25 1196.23 L 1717.72 1196.24 C 1734.54 1196.24 1751.45 1195.64 1768.25 1196.25 C 1785.78 1209.54 1778.99 1249.82 1778.98 1269.8 L 1778.94 1706.85 C 1769.33 1722.13 1754.72 1717.58 1738.92 1717.58 L 415.341 1717.56 C 366.44 1717.62 282.262 1732.37 273.439 1663.7 C 271.655 1649.82 272.397 1635.04 272.392 1621.04 L 272.425 502.641 C 272.424 461.28 273.225 419.775 271.605 378.449 C 269.822 332.986 298.646 313.482 340.95 312.372 z" transform="translate(0,0)"/>
  <path transform="translate(0,0)" fill="rgb(141,187,236)" d="M 330.031 346.811 L 1418.12 346.764 C 1488.6 346.761 1486.64 342.431 1486.59 420.422 L 1486.53 530.803 L 1464 530.803 L 305.366 530.803 L 305.35 421.703 C 305.319 391.076 293.791 354.268 330.031 346.811 z"/>
  <path transform="translate(0,0)" fill="rgb(50,50,54)" d="M 386.286 387.557 C 414.799 382.246 442.175 401.195 447.245 429.752 C 452.315 458.309 433.134 485.523 404.535 490.351 C 376.277 495.121 349.457 476.218 344.448 448.002 C 339.438 419.785 358.113 392.806 386.286 387.557 z"/>
  <path transform="translate(0,0)" fill="rgb(242,132,120)" d="M 392.244 420.235 C 402.45 418.265 412.364 424.795 414.585 434.949 C 416.805 445.104 410.521 455.175 400.424 457.645 C 393.668 459.297 386.548 457.157 381.822 452.055 C 377.096 446.952 375.508 439.689 377.673 433.079 C 379.838 426.47 385.415 421.553 392.244 420.235 z"/>
  <path transform="translate(0,0)" fill="rgb(50,50,54)" d="M 621.331 387.697 C 649.377 383.418 675.612 402.6 680.041 430.623 C 684.47 458.646 665.43 484.983 637.431 489.563 C 609.218 494.177 582.637 474.96 578.174 446.723 C 573.711 418.486 593.071 392.008 621.331 387.697 z"/>
  <path transform="translate(0,0)" fill="rgb(54,76,150)" d="M 622.868 420.1 C 650.64 416.906 654.739 444.906 634.223 457.913 C 606.728 459.876 600.865 432.311 622.868 420.1 z"/>
  <path transform="translate(0,0)" fill="rgb(50,50,54)" d="M 510.459 387.788 C 538.482 386.237 562.546 407.503 564.454 435.504 C 566.362 463.506 545.404 487.839 517.429 490.103 C 499.013 491.593 481.219 483.061 470.85 467.769 C 460.481 452.477 459.139 432.789 467.339 416.232 C 475.538 399.675 492.011 388.809 510.459 387.788 z"/>
  <path transform="translate(0,0)" fill="rgb(155,198,89)" d="M 507.163 420.1 C 532.636 419.628 540.091 445.142 519.238 457.913 C 494.442 461.651 488.836 433.725 507.163 420.1 z"/>
  <path transform="translate(0,0)" fill="rgb(91,145,213)" d="M 1714.49 1229.72 C 1724.7 1229.5 1734.88 1229.57 1745.09 1229.72 L 1745.09 1683.93 L 1520.9 1683.93 L 1520.9 1622.01 L 1643.9 1622.08 C 1663.14 1622.1 1684.28 1623.87 1703.34 1621.65 C 1724.89 1619.14 1726.97 1592.7 1705.4 1588.91 C 1687.82 1585.82 1663.41 1587.87 1645.05 1587.86 L 1520.9 1587.89 C 1519.57 1579.98 1520.67 1570.69 1520.76 1562.64 L 1520.9 1521.97 L 1651.97 1521.99 C 1674.36 1522.03 1708.09 1530.69 1719.79 1511.46 C 1722.15 1501 1717.26 1495.23 1709.25 1488.75 C 1692.04 1486.67 1669.98 1488.69 1652.11 1488.71 L 1520.9 1488.75 L 1520.9 1423.01 L 1649.89 1422.89 C 1664.56 1422.86 1702.58 1428.59 1714.17 1419.19 C 1724.8 1410.58 1720.03 1392.66 1706.74 1390.56 C 1689.08 1387.77 1665.15 1389.72 1646.87 1389.71 L 1520.9 1389.75 L 1520.9 1324.05 L 1644.43 1323.98 C 1663.71 1323.98 1683.88 1325.41 1703.07 1323.95 C 1723.14 1322.41 1727 1294.44 1705.79 1291.48 C 1687.03 1288.85 1664.1 1290.78 1644.91 1290.78 L 1520.9 1290.86 L 1520.9 1229.72 L 1714.49 1229.72 z"/>
  <path transform="translate(0,0)" fill="rgb(50,50,54)" d="M 439.222 1179.12 L 1321.93 1179.06 C 1331.07 1179.05 1341.13 1178.21 1350.18 1179.17 C 1370.52 1181.33 1363.39 1233.16 1363.36 1246.72 C 1363.32 1272.47 1363.88 1298.3 1363.31 1324.05 C 1358.89 1332.49 1356.28 1336.27 1346.13 1337.7 L 522.438 1337.72 C 497.838 1337.75 455.633 1340.16 432.749 1336.09 C 419.319 1324.73 424.4 1218.31 425.605 1196.86 C 426.179 1186.63 429.121 1182.07 439.222 1179.12 z"/>
  <path transform="translate(0,0)" fill="rgb(141,187,236)" d="M 909.942 1212.9 L 1329.37 1212.9 L 1329.37 1304.46 L 909.942 1304.46 L 909.942 1212.9 z"/>
  <path transform="translate(0,0)" fill="rgb(141,187,236)" d="M 459.005 1212.9 L 876.986 1212.9 L 876.986 1304.46 L 459.005 1304.46 L 459.005 1212.9 z"/>
  <path transform="translate(0,0)" fill="rgb(50,50,54)" d="M 995.506 671.95 C 1054.88 669.009 1037.66 693.729 1037.82 743.369 L 1173.84 743.355 C 1193.92 743.358 1260.06 733.326 1262.65 758.539 C 1265.6 787.277 1265.41 869.933 1262.47 897.631 C 1260.5 916.244 1231.21 918.589 1228.49 899.244 C 1226.71 886.646 1228.01 872.248 1228 859.486 L 1227.98 776.972 C 1206.41 776.384 1184.67 776.925 1163.08 776.932 L 1037.82 776.972 C 1037.56 848.8 1053.26 848.627 984.295 848.543 L 909.942 848.459 C 909.983 862.792 913.034 896.96 904.456 907.932 C 895.681 919.157 877.779 911.868 875.624 898.662 C 873.97 888.522 877.042 861.355 876.986 848.459 L 863.937 848.459 L 806.613 848.546 C 742.647 848.577 756.678 841.817 756.989 776.972 L 567.121 776.972 L 567.13 859.291 C 567.125 872.127 568.283 886.184 566.726 898.856 C 564.879 913.896 533.844 927.024 533.463 885.956 L 533.385 802.469 C 533.345 787.353 531.435 769.9 534.195 755.176 C 537.909 735.363 606.532 743.311 621.786 743.314 L 756.989 743.369 C 757.349 652.362 747.625 671.912 843.287 671.989 L 995.506 671.95 z"/>
  <path transform="translate(0,0)" fill="rgb(242,132,120)" d="M 846.745 705.489 L 1004.4 705.489 C 1003.82 741.654 1004.36 777.903 1004.4 814.077 L 948.5 814.077 L 790.522 814.077 L 790.522 705.489 L 846.745 705.489 z"/>
  <path transform="translate(0,0)" fill="rgb(50,50,54)" d="M 422.735 1389.75 C 467.985 1388.42 513.676 1389.76 558.968 1389.77 L 635.302 1389.73 C 648.578 1389.64 684.46 1383.29 691.12 1398.59 C 695.31 1408.21 692.626 1497.76 692.702 1514.58 C 692.781 1531.96 699.709 1557.38 679.205 1565.34 C 665.067 1566.11 650.561 1565.38 636.379 1565.37 L 472.276 1565.38 C 398.74 1565.57 409.893 1575.21 410.291 1508.83 C 410.442 1483.81 410.574 1458.58 409.996 1433.57 C 409.633 1417.87 401.364 1394.19 422.735 1389.75 z"/>
  <path transform="translate(0,0)" fill="rgb(141,187,236)" d="M 442.032 1423.01 L 659.992 1423.01 L 659.992 1532.82 L 442.032 1532.82 L 442.032 1423.01 z"/>
  <path transform="translate(0,0)" fill="rgb(50,50,54)" d="M 1121.47 958.041 C 1130.1 956.935 1139.99 957.912 1148.73 957.935 L 1206.82 958.052 C 1231.1 958.087 1380.77 947.693 1385.93 968.181 C 1389.31 981.584 1386.72 1039.16 1386.72 1057.64 C 1386.72 1076.69 1395.72 1125.74 1371.83 1132.8 L 1205.16 1132.77 C 1182.3 1132.78 1109.55 1144.11 1105.2 1117.24 C 1101.76 1096.03 1102.52 1000.14 1104.55 976.056 C 1105.58 963.831 1109.36 959.875 1121.47 958.041 z"/>
  <path transform="translate(0,0)" fill="rgb(242,132,120)" d="M 1137.52 991.905 L 1353.03 991.905 L 1353.03 1098.8 C 1281.3 1097.38 1209.28 1098.78 1137.52 1098.8 C 1137.06 1063.19 1137.49 1027.52 1137.52 991.905 z"/>
  <path transform="translate(0,0)" fill="rgb(50,50,54)" d="M 767.809 1389.75 C 784.944 1388.91 802.492 1389.69 819.664 1389.71 L 923.001 1389.78 C 1054.79 1389.78 1038.55 1363.73 1037.72 1498.3 C 1037.6 1516.32 1045.74 1556.89 1025.43 1565.34 C 1006.14 1566.27 986.408 1565.41 967.082 1565.38 L 800.824 1565.49 C 781.914 1565.65 758.595 1571.65 757.091 1545.73 C 755.382 1516.26 756.882 1485.6 757.116 1456.05 C 757.257 1438.31 749.33 1399.48 767.809 1389.75 z"/>
  <path transform="translate(0,0)" fill="rgb(141,187,236)" d="M 790.522 1423.01 L 1004.4 1423.01 L 1004.4 1532.82 L 790.522 1532.82 L 790.522 1423.01 z"/>
  <path transform="translate(0,0)" fill="rgb(50,50,54)" d="M 773.204 958.041 L 946.553 958.092 C 1053.28 957.936 1037.26 940.76 1037.7 1052.55 C 1037.8 1077.3 1048.55 1124.59 1022.24 1132.8 C 947.706 1135.46 850.83 1136.2 776.263 1132.8 C 745.838 1131.41 757.15 1080.29 757.083 1057.64 C 757.008 1031.98 744.773 963.972 773.204 958.041 z"/>
  <path transform="translate(0,0)" fill="rgb(242,132,120)" d="M 790.522 991.905 L 1004.4 991.905 L 1004.4 1098.8 C 983.083 1100.45 958.383 1098.8 936.644 1098.8 L 790.522 1098.8 L 790.522 991.905 z"/>
  <path transform="translate(0,0)" fill="rgb(50,50,54)" d="M 1115.89 1389.75 L 1286.2 1389.74 C 1314.69 1389.74 1343.35 1388.96 1371.83 1389.75 C 1376.47 1393.2 1379.66 1396.47 1383 1401.23 C 1383.78 1429.17 1393.79 1555.59 1371.83 1565.34 C 1358.19 1565.97 1344.32 1565.4 1330.65 1565.39 L 1167.32 1565.36 C 1154.77 1565.41 1111.51 1571.71 1106 1556.44 C 1103.24 1548.81 1103.51 1422.11 1104.33 1406.94 C 1104.85 1397.42 1106.41 1393.02 1115.89 1389.75 z"/>
  <path transform="translate(0,0)" fill="rgb(141,187,236)" d="M 1137.52 1423.01 L 1349.74 1423.01 L 1349.74 1532.82 L 1137.52 1532.82 L 1137.52 1423.01 z"/>
  <path transform="translate(0,0)" fill="rgb(50,50,54)" d="M 425.659 958.041 C 453.259 957.71 668.895 956.161 677.34 959.839 C 697.604 968.663 687.523 1061.19 687.502 1084.89 C 687.486 1101.99 694.899 1127.9 672.073 1132.8 L 503.913 1132.71 C 478.971 1132.69 453.282 1134.41 428.43 1132.85 C 403.222 1131.28 410.126 1100.24 410.098 1082.62 L 410.217 1017.57 C 410.293 999.826 402.019 963.16 425.659 958.041 z"/>
  <path transform="translate(0,0)" fill="rgb(141,187,236)" d="M 501.478 991.905 L 654.091 991.905 L 654.091 1098.8 L 598.5 1098.8 L 442.032 1098.8 L 442.032 991.905 L 501.478 991.905 z"/>
</svg>